<?xml version="1.0" encoding="UTF-8" standalone="no"?>
<!-- Uploaded to: SVG Repo, www.svgrepo.com, Generator: SVG Repo Mixer Tools -->

<svg
   width="800px"
   height="800px"
   viewBox="0 0 15 15"
   fill="none"
   version="1.1"
   id="svg1"
   sodipodi:docname="nextjs-svgrepo-com.svg"
   inkscape:version="1.3.2 (091e20ef0f, 2023-11-25, custom)"
   xmlns:inkscape="http://www.inkscape.org/namespaces/inkscape"
   xmlns:sodipodi="http://sodipodi.sourceforge.net/DTD/sodipodi-0.dtd"
   xmlns="http://www.w3.org/2000/svg"
   xmlns:svg="http://www.w3.org/2000/svg">
  <defs
     id="defs1" />
  <sodipodi:namedview
     id="namedview1"
     pagecolor="#505050"
     bordercolor="#eeeeee"
     borderopacity="1"
     inkscape:showpageshadow="0"
     inkscape:pageopacity="0"
     inkscape:pagecheckerboard="0"
     inkscape:deskcolor="#505050"
     inkscape:zoom="0.834386"
     inkscape:cx="127.03952"
     inkscape:cy="208.53658"
     inkscape:window-width="2520"
     inkscape:window-height="940"
     inkscape:window-x="1080"
     inkscape:window-y="100"
     inkscape:window-maximized="1"
     inkscape:current-layer="svg1" />
  <path
     d="M 4.7328955,4.7328955 5.1067682,4.4628722 C 4.9896459,4.3007107 4.7813383,4.2325385 4.5910077,4.2940789 4.4006677,4.3556285 4.2717114,4.5328615 4.2717114,4.7328955 Z M 7.5,13.495393 C 4.1888367,13.495393 1.504607,10.811209 1.504607,7.5 H 0.5822388 c 0,3.820542 3.0971831,6.917761 6.9177612,6.917761 z M 13.495393,7.5 c 0,3.311209 -2.684184,5.995393 -5.995393,5.995393 v 0.922368 c 3.820542,0 6.917761,-3.097219 6.917761,-6.917761 z M 7.5,1.504607 c 3.311209,0 5.995393,2.6842297 5.995393,5.995393 h 0.922368 C 14.417761,3.6794219 11.320542,0.5822388 7.5,0.5822388 Z m 0,-0.9223682 C 3.6794219,0.5822388 0.5822388,3.6794219 0.5822388,7.5 H 1.504607 C 1.504607,4.1888367 4.1888367,1.504607 7.5,1.504607 Z M 5.1940796,11.650657 V 4.7328955 H 4.2717114 V 11.650657 Z M 4.3590229,5.0029188 10.354453,13.304186 11.102124,12.764232 5.1067682,4.4628722 Z M 9.8059204,4.2717114 v 5.534209 h 0.9223686 v -5.534209 z"
     fill="#000000"
     id="path1"
     style="fill:#ffffff;stroke:#000000;stroke-width:0.86472;stroke-linecap:round;stroke-linejoin:round;stroke-dasharray:none;stroke-opacity:1;paint-order:stroke fill markers" />
</svg>
